<?xml version="1.0" encoding="UTF-8" standalone="no"?>
<svg
   xmlns:dc="http://purl.org/dc/elements/1.1/"
   xmlns:cc="http://creativecommons.org/ns#"
   xmlns:rdf="http://www.w3.org/1999/02/22-rdf-syntax-ns#"
   xmlns:svg="http://www.w3.org/2000/svg"
   xmlns="http://www.w3.org/2000/svg"
   xmlns:sodipodi="http://sodipodi.sourceforge.net/DTD/sodipodi-0.dtd"
   xmlns:inkscape="http://www.inkscape.org/namespaces/inkscape"
   id="svg2"
   preserveAspectRatio="xMidYMid meet"
   viewBox="0 0 432 480"
   height="480"
   width="540"
   version="1.0"
   inkscape:version="0.91 r13725"
   sodipodi:docname="chefathome_logo_white.svg">
  <sodipodi:namedview
     pagecolor="#ffffff"
     bordercolor="#666666"
     borderopacity="1"
     objecttolerance="10"
     gridtolerance="10"
     guidetolerance="10"
     inkscape:pageopacity="0"
     inkscape:pageshadow="2"
     inkscape:window-width="1920"
     inkscape:window-height="1001"
     id="namedview3349"
     showgrid="false"
     inkscape:zoom="1.1030717"
     inkscape:cx="36.167684"
     inkscape:cy="220.28936"
     inkscape:window-x="-9"
     inkscape:window-y="-9"
     inkscape:window-maximized="1"
     inkscape:current-layer="svg2"
     units="px"
     width="280px" />
  <defs
     id="defs28" />
  <metadata
     id="metadata4">
Created by potrace 1.13, written by Peter Selinger 2001-2015
<rdf:RDF>
  <cc:Work
     rdf:about="">
    <dc:format>image/svg+xml</dc:format>
    <dc:type
       rdf:resource="http://purl.org/dc/dcmitype/StillImage" />
    <dc:title></dc:title>
  </cc:Work>
</rdf:RDF>
</metadata>
  <g
     id="g6"
     transform="matrix(0.127709,0,0,-0.08755418,-83.974145,368.78716)"
     style="fill:#ffffff;fill-opacity:1;stroke:#bda881;stroke-opacity:1">
    <path
       id="path8"
       d="m 2045,2847 c -104,-35 -179,-97 -214,-177 -52,-120 -53,-272 -1,-435 27,-84 33,-121 37,-230 5,-126 5,-133 -26,-228 -43,-134 -40,-166 16,-213 l 25,-22 -21,-63 c -66,-190 -49,-682 30,-895 29,-77 78,-145 124,-172 35,-20 50,-22 130,-19 114,4 197,38 256,105 67,77 39,100 -45,36 -67,-51 -131,-76 -206,-81 -84,-6 -122,17 -163,100 -57,116 -71,218 -71,547 -1,263 1,301 18,348 14,41 22,52 35,48 123,-41 198,-57 288,-63 l 102,-6 15,-46 c 32,-99 40,-170 41,-331 0,-113 -4,-174 -13,-194 -21,-49 -33,-17 -48,126 -25,255 -61,367 -133,415 -64,43 -143,22 -184,-49 -44,-76 -60,-261 -37,-438 21,-159 61,-220 147,-220 57,0 95,26 132,92 l 29,49 22,-35 c 18,-30 28,-36 54,-36 84,0 116,76 116,269 0,161 -12,247 -56,398 -5,18 -1,25 18,32 40,15 49,36 59,143 13,132 33,174 219,458 189,288 195,302 195,415 0,112 -27,176 -91,213 -35,21 -49,23 -128,19 l -88,-5 -28,31 c -26,30 -31,31 -131,37 -95,6 -111,10 -179,45 -86,43 -175,55 -245,32 z m 225,-43 c 65,-29 74,-44 35,-62 -33,-15 -80,-82 -106,-151 -23,-61 -38,-214 -22,-224 6,-4 12,29 16,86 9,145 50,232 130,277 34,20 56,25 122,25 135,0 185,-48 185,-178 0,-77 -13,-115 -72,-205 -22,-34 -38,-65 -34,-69 12,-12 47,32 84,106 32,65 37,86 41,160 1,48 7,91 13,98 16,20 77,35 114,28 111,-20 166,-181 114,-334 -25,-76 -130,-253 -225,-381 -67,-89 -79,-101 -103,-98 -43,5 -38,31 22,129 31,50 56,93 56,96 0,15 -34,-26 -61,-76 -57,-101 -94,-122 -147,-85 -37,26 -43,47 -28,105 8,30 13,55 12,57 -2,1 -13,-24 -25,-57 -12,-34 -29,-62 -39,-65 -9,-3 -46,2 -82,12 l -65,17 -6,72 c -7,91 -19,107 -19,25 0,-55 -3,-63 -25,-78 -26,-17 -89,-14 -108,5 -5,5 -13,36 -17,68 l -7,58 -2,-48 c -1,-36 -7,-54 -25,-72 -40,-40 -52,-25 -59,73 -11,138 -26,166 -20,37 4,-100 -4,-151 -22,-134 -3,4 -12,46 -20,95 -8,49 -24,116 -37,149 -18,50 -22,81 -22,185 0,108 3,133 23,184 69,175 256,249 431,170 z m 5,-824 c 91,-24 233,-91 266,-126 l 22,-23 -22,-52 c -13,-28 -28,-93 -34,-143 -6,-50 -11,-92 -12,-94 -2,-3 -128,53 -160,71 -11,6 -40,22 -64,36 -35,19 -58,24 -115,25 -70,0 -252,-18 -301,-30 -33,-8 -32,0 5,121 17,54 30,121 30,149 0,90 17,99 180,92 79,-3 155,-13 205,-26 z m -54,-394 c 47,-20 119,-100 119,-132 0,-17 -147,7 -241,40 -56,19 -104,37 -107,40 -8,9 21,38 53,52 40,18 134,17 176,0 z m -36,-272 c 46,-70 67,-156 72,-294 5,-133 4,-136 -24,-190 -49,-95 -103,-91 -138,9 -25,69 -31,285 -11,380 25,117 63,153 101,95 z"
       style="fill:#ffffff;fill-opacity:1;stroke:#bda881;stroke-opacity:1"
       inkscape:connector-curvature="0" />
    <path
       id="path10"
       d="m 478,1560 c -48,-14 -96,-50 -120,-88 -23,-37 -23,-39 -23,-387 0,-304 2,-359 18,-415 25,-92 63,-166 99,-192 64,-45 214,-31 253,25 21,30 19,64 -6,77 -16,9 -28,6 -64,-14 -105,-62 -175,-10 -210,152 -22,105 -27,256 -17,478 7,172 12,207 28,235 26,44 80,64 133,48 56,-17 85,-9 89,23 6,53 -92,85 -180,58 z"
       style="fill:#ffffff;fill-opacity:1;stroke:#bda881;stroke-opacity:1"
       inkscape:connector-curvature="0" />
    <path
       id="path12"
       d="m 2573,1544 c -8,-22 4,-630 17,-784 12,-158 28,-253 45,-277 13,-17 15,-17 31,-1 16,16 17,33 4,264 -15,279 -18,265 66,262 l 51,-1 7,-90 c 3,-50 6,-166 6,-259 0,-98 4,-178 10,-189 12,-21 40,-25 58,-7 15,15 16,167 2,468 -5,118 -12,300 -16,404 -6,165 -9,191 -25,207 -11,11 -26,19 -34,19 -12,0 -13,-36 -8,-254 l 6,-254 -67,-7 c -37,-4 -69,-6 -71,-3 -2,2 -7,115 -11,251 -6,223 -9,249 -25,257 -26,14 -39,12 -46,-6 z"
       style="fill:#ffffff;fill-opacity:1;stroke:#bda881;stroke-opacity:1"
       inkscape:connector-curvature="0" />
    <path
       id="path14"
       d="m 1007,1422 c -15,-17 -16,-34 -7,-163 5,-79 10,-177 10,-216 l 0,-73 -52,0 c -29,0 -59,4 -65,8 -9,6 -13,65 -15,216 -3,186 -5,210 -20,220 -13,8 -23,8 -35,0 -17,-10 -18,-43 -18,-451 0,-403 1,-441 18,-466 20,-31 29,-33 52,-10 15,14 16,41 13,227 l -3,211 40,-4 c 22,-2 49,-5 60,-6 19,-2 20,-11 25,-201 5,-208 13,-244 50,-244 44,0 46,18 33,341 -6,167 -12,374 -12,460 -1,154 -1,157 -23,163 -32,8 -33,8 -51,-12 z"
       style="fill:#ffffff;fill-opacity:1;stroke:#bda881;stroke-opacity:1"
       inkscape:connector-curvature="0" />
    <path
       id="path16"
       d="m 3047,1429 c -26,-15 -44,-57 -62,-148 -14,-69 -16,-124 -12,-339 5,-270 11,-313 55,-402 34,-68 70,-95 127,-95 71,0 128,56 162,159 21,67 31,463 13,564 -24,142 -92,238 -185,261 -53,13 -75,13 -98,0 z m 146,-89 c 42,-33 55,-90 63,-275 16,-345 -7,-503 -80,-550 -25,-17 -28,-17 -46,0 -27,24 -55,104 -70,195 -14,92 -15,526 0,580 6,22 17,46 26,55 22,21 76,19 107,-5 z"
       style="fill:#ffffff;fill-opacity:1;stroke:#bda881;stroke-opacity:1"
       inkscape:connector-curvature="0" />
    <path
       id="path18"
       d="m 1565,1417 c -19,-14 -20,-35 -31,-414 -7,-219 -15,-425 -18,-457 -4,-37 -2,-64 5,-72 16,-19 65,-18 73,2 3,9 6,114 6,233 l 0,218 25,-5 c 38,-7 73,6 81,30 8,28 -18,48 -63,48 l -34,0 6,158 c 4,86 9,163 11,171 3,10 18,12 64,7 67,-8 100,4 100,34 0,29 -49,49 -132,56 -56,5 -78,2 -93,-9 z"
       style="fill:#ffffff;fill-opacity:1;stroke:#bda881;stroke-opacity:1"
       inkscape:connector-curvature="0" />
    <path
       id="path20"
       d="m 1226,1404 c -9,-8 -16,-23 -16,-32 -13,-591 -7,-884 17,-908 10,-10 38,-14 94,-14 87,0 119,10 119,38 0,32 -22,42 -93,42 l -68,0 3,220 3,220 42,0 c 59,0 73,8 73,40 0,33 -14,40 -77,40 l -46,0 7,142 c 4,78 8,144 10,145 1,2 24,-3 50,-11 53,-16 72,-13 86,14 14,26 -9,46 -72,65 -66,19 -112,19 -132,-1 z"
       style="fill:#ffffff;fill-opacity:1;stroke:#bda881;stroke-opacity:1"
       inkscape:connector-curvature="0" />
    <path
       id="path22"
       d="m 3473,1413 c -10,-3 -13,-40 -13,-136 0,-73 -7,-217 -15,-322 -7,-104 -17,-258 -21,-342 l -7,-152 27,-13 c 20,-8 32,-9 44,-1 15,9 18,39 23,219 10,324 21,536 29,527 18,-21 126,-454 136,-545 11,-101 57,-131 93,-61 28,57 74,208 122,408 l 44,180 6,-140 c 4,-77 10,-239 13,-360 4,-121 9,-230 12,-242 7,-34 38,-47 62,-25 20,17 20,24 12,336 -5,176 -12,396 -16,489 -7,167 -7,169 -32,180 -21,10 -27,8 -47,-15 -35,-41 -61,-120 -131,-393 -35,-137 -63,-252 -64,-255 0,-3 -25,78 -55,180 -63,217 -136,429 -159,465 -16,24 -36,30 -63,18 z"
       style="fill:#ffffff;fill-opacity:1;stroke:#bda881;stroke-opacity:1"
       inkscape:connector-curvature="0" />
    <path
       id="path24"
       d="m 4176,1404 c -9,-8 -16,-21 -16,-27 -1,-7 -3,-145 -5,-307 -6,-369 2,-586 22,-606 10,-10 38,-14 94,-14 88,0 119,10 119,40 0,28 -30,40 -100,40 l -62,0 4,220 3,220 47,0 c 44,0 78,18 78,40 0,23 -34,40 -82,40 l -51,0 7,142 c 4,78 8,144 10,145 1,2 24,-3 50,-11 53,-16 72,-13 86,14 14,26 -9,46 -72,65 -66,19 -112,19 -132,-1 z"
       style="fill:#ffffff;fill-opacity:1;stroke:#bda881;stroke-opacity:1"
       inkscape:connector-curvature="0" />
  </g>
</svg>
