<?xml version="1.0" encoding="utf-8"?>
<!-- Generator: Adobe Illustrator 16.0.0, SVG Export Plug-In . SVG Version: 6.00 Build 0)  -->
<!DOCTYPE svg PUBLIC "-//W3C//DTD SVG 1.1//EN" "http://www.w3.org/Graphics/SVG/1.1/DTD/svg11.dtd">
<svg version="1.1" id="Layer_1" xmlns="http://www.w3.org/2000/svg" xmlns:xlink="http://www.w3.org/1999/xlink" x="0px" y="0px"
	 width="98px" height="33.892px" viewBox="-24 -8.3 98 33.892" enable-background="new -24 -8.3 98 33.892" xml:space="preserve">
<g>
	<g>
		<g>
			<defs>
				<rect id="SVGID_1_" x="-24" y="-8.3" width="98" height="33.893"/>
			</defs>
			<clipPath id="SVGID_2_">
				<use xlink:href="#SVGID_1_"  overflow="visible"/>
			</clipPath>
			<path clip-path="url(#SVGID_2_)" fill="#231F20" d="M59.957,10.55c-2.981,0-6.56-0.596-10.238-1.191
				C45.248,8.663,40.774,7.867,36.4,6.477c-0.694-0.199-1.391-0.299-1.986-0.398c-1.89-0.398-3.579-0.199-5.27,0.695
				c-0.894,0.498-1.887,0.894-2.783,1.392c-0.596,0.299-1.489,0.299-1.391,1.095c0,0.596,0.795,0.794,1.293,0.992
				c2.684,0.995,5.367,1.989,7.951,2.982c0.695,0.299,1.392,0.299,1.987,0c2.188-0.894,4.473-0.993,6.658-1.093
				c2.188-0.197,4.075,0.498,5.865,1.591c1.093,0.696,1.789,1.79,1.889,3.082c0.1,0.894-0.497,2.086-1.59,2.285
				c-1.491,0.299-2.982,0.1-4.374-0.199c-2.883-0.597-5.765-1.193-8.548-2.286c-1.591-0.597-3.08-0.498-4.671,0.1
				c-1.491,0.597-2.981,1.192-4.473,1.788c-0.1,0.1-0.299,0.398-0.299,0.498c0,0.199,0.199,0.498,0.398,0.498
				c1.889,0.498,3.776,0.993,5.565,1.491c1.192,0.297,2.484,0.496,3.678,0.894c2.683,0.995,5.466,1.392,8.349,1.292
				c0.299,0,0.695,0.1,0.993,0.1c0.498,0.1,0.996,0.894,0.896,1.292s-0.598,0.896-0.896,0.896c-0.199,0-0.495,0.1-0.694,0.1
				c-2.287,0.1-4.573,0-6.759-0.797c-3.776-1.292-7.754-1.887-11.53-2.882c-1.192-0.299-2.484-0.597-3.577-1.093
				c-0.896-0.398-1.69-0.299-2.584,0.099c-2.288,0.994-4.672,1.89-7.057,2.684c-1.093,0.396-2.088,0.894-3.182,1.292
				c-1.59,0.597-3.478,0-4.671-1.292c-0.397-0.498-0.596-0.993-0.299-1.59c0.299-0.498,0.498-1.093,0.895-1.491
				c2.385-2.186,5.07-3.876,8.548-3.677c1.889,0.1,3.876,0.199,5.765,0.794c0.894,0.298,1.788,0.199,2.683-0.197
				c1.987-0.796,3.976-1.593,6.062-2.387c0.199-0.1,0.398-0.297,0.398-0.496c0-0.199-0.1-0.398-0.299-0.498
				c-0.1-0.1-0.199-0.1-0.299-0.199c-2.285-0.993-4.571-1.887-6.956-2.882c-0.796-0.299-1.491-0.398-2.287-0.1
				c-4.075,1.69-8.25,2.584-12.524,3.181c-1.988,0.299-4.075,0.398-6.162,0.597c-1.192,0.1-2.286,0-3.28-0.796
				c-0.397-0.298-0.994-0.498-1.491-0.896c-0.297-0.197-0.497-0.496-0.695-0.792c-0.697-1.294-0.398-3.48,0.497-4.475
				c1.093-1.19,2.385-2.086,3.976-2.484C2.21,4.688,4.297,4.389,6.484,4.785c3.578,0.696,7.157,1.293,10.635,2.585
				c0.597,0.197,1.292,0.396,1.989,0.496c0.396,0.1,0.894,0.1,1.392-0.1c1.887-0.695,3.876-1.29,5.467-2.684
				c0.296-0.199,0.198-0.695-0.1-0.794c-0.996-0.396-1.89-0.794-2.883-1.093c-6.36-1.79-12.624-3.778-19.084-5.268
				C-0.176-3.066-4.351-3.96-8.524-4.456c-0.795-0.1-1.591-0.199-2.386-0.199c-2.981-0.1-5.566,0.994-7.753,3.082
				c-1.093,1.091-1.589,2.484-1.888,3.974c-0.497,2.684,0.398,4.374,2.982,5.367c1.093,0.398,2.187,0.697,3.28,0.298
				c0.298-0.099,0.695-0.199,0.994-0.199c0.298,0,0.596,0.298,0.795,0.498c0.297,0.298,0.099,0.995-0.299,1.192
				c-1.491,0.794-2.982,1.093-4.572,0.597c-1.193-0.298-2.286-1.093-3.379-1.491c-0.199-0.099-0.398-0.199-0.498-0.398
				c-0.696-0.894-1.491-1.788-2.087-2.684C-24.03,4.588-24.228,3.495-23.93,2.3c0.199-0.695,0.398-1.29,0.498-1.987
				c0.497-1.788,1.392-3.38,2.981-4.471c1.789-1.393,3.876-2.486,5.963-3.38c0.298-0.1,0.597-0.299,0.994-0.299
				c2.783-0.398,5.665-0.796,8.547-0.398c1.292,0.199,2.485,0.298,3.777,0.498c3.18,0.298,6.262,1.093,9.244,2.285
				c3.179,1.194,6.46,2.186,9.741,3.082c2.783,0.796,5.466,1.59,8.15,2.683c2.186,0.796,4.371,1.392,6.559,1.987
				C33.319,2.5,34.115,2.5,34.811,2.004c0.796-0.498,1.59-0.994,2.385-1.392c1.095-0.597,2.287-1.095,3.38-1.591
				c1.491-0.496,2.982-0.993,4.374-1.79c0.894-0.498,1.887-0.695,2.883-0.993c3.179-0.794,6.36-1.889,9.641-2.288
				c3.279-0.496,6.56-0.794,9.839-0.396c1.789,0.296,3.28,1.093,4.473,2.287c1.292,1.191,1.988,2.684,2.186,4.471
				c0.199,2.783-0.595,5.168-2.285,7.354c-0.794,0.995-1.986,1.493-3.181,1.889C66.118,10.451,63.336,10.649,59.957,10.55
				 M61.05-2.271c-3.081,0.199-6.063,0.597-9.044,1.392c-1.095,0.297-2.188,0.595-3.28,0.794c-3.38,0.597-6.46,1.989-9.741,3.082
				c-0.099,0-0.198,0.1-0.298,0.199c-0.297,0.199-0.496,0.398-0.695,0.697c0.299,0.197,0.498,0.496,0.795,0.595
				c1.889,0.396,3.778,0.894,5.565,1.491c0.299,0.099,0.697,0.099,0.994,0.199c3.579,0.595,7.156,1.192,10.735,1.688
				c1.292,0.199,2.684,0.199,4.075,0.199c0.694,0,1.392-0.099,1.987-0.298c1.391-0.496,2.782-1.093,4.074-1.688
				c0.994-0.398,1.69-1.194,2.188-2.088c1.192-2.086,0.595-5.564-2.684-6.062c-0.697-0.1-1.392-0.199-1.989-0.199
				C62.84-2.271,61.944-2.271,61.05-2.271 M4.694,12.34c2.584,0,5.268-0.695,7.953-1.093c0.695-0.099,1.292-0.398,1.987-0.597
				c0.298-0.099,0.597-0.298,0.894-0.498c0.1-0.098,0.199-0.197,0.199-0.197c-0.1-0.199-0.1-0.398-0.299-0.498
				c-1.489-0.894-3.278-0.993-4.869-1.192c-1.093-0.1-2.285,0-3.378-0.298C5.986,7.667,4.993,7.767,3.899,8.065
				C3.203,8.265,2.607,8.265,1.911,8.464c-0.297,0.1-0.596,0.298-0.894,0.398c-0.498,0.299-0.795,0.794-0.795,1.39
				c0,0.597,0.298,1.095,0.795,1.394C2.011,12.439,3.303,12.539,4.694,12.34 M15.331,19.497c-2.387-0.199-4.473,0.398-6.363,1.887
				c-0.396,0.298-0.595,0.697-0.595,1.095c0,0.199,0.199,0.398,0.297,0.498c0.199,0.098,0.398,0.098,0.697,0.098
				c2.484-0.695,4.869-1.59,7.256-2.684c0.099-0.1,0.197-0.396,0.197-0.496s-0.098-0.199-0.197-0.199
				C16.225,19.596,15.827,19.497,15.331,19.497 M46.44,17.012c0.396-0.099,0.595-0.099,0.794-0.099c0.1,0,0.299-0.1,0.299-0.199
				c0-0.199,0.1-0.498-0.1-0.597c-0.199-0.299-0.398-0.595-0.697-0.695c-1.986-1.093-4.074-1.192-6.161-0.299
				c-0.1,0-0.199,0.199-0.199,0.199c0,0.1,0.1,0.199,0.199,0.199C42.564,16.415,44.551,16.713,46.44,17.012"/>
		</g>
	</g>
</g>
</svg>
