<?xml version="1.0" encoding="UTF-8" standalone="no"?>
<!-- Generator: Adobe Illustrator 18.0.0, SVG Export Plug-In . SVG Version: 6.00 Build 0)  -->

<svg
   xmlns:dc="http://purl.org/dc/elements/1.1/"
   xmlns:cc="http://creativecommons.org/ns#"
   xmlns:rdf="http://www.w3.org/1999/02/22-rdf-syntax-ns#"
   xmlns:svg="http://www.w3.org/2000/svg"
   xmlns="http://www.w3.org/2000/svg"
   xmlns:sodipodi="http://sodipodi.sourceforge.net/DTD/sodipodi-0.dtd"
   xmlns:inkscape="http://www.inkscape.org/namespaces/inkscape"
   version="1.1"
   id="Capa_1"
   x="0px"
   y="0px"
   viewBox="0 0 192.05 192.05"
   style="enable-background:new 0 0 192.05 192.05;"
   xml:space="preserve"
   inkscape:version="0.91 r13725"
   sodipodi:docname="milk_no.svg"><metadata
     id="metadata87"><rdf:RDF><cc:Work
         rdf:about=""><dc:format>image/svg+xml</dc:format><dc:type
           rdf:resource="http://purl.org/dc/dcmitype/StillImage" /></cc:Work></rdf:RDF></metadata><defs
     id="defs85" /><sodipodi:namedview
     pagecolor="#ffffff"
     bordercolor="#666666"
     borderopacity="1"
     objecttolerance="10"
     gridtolerance="10"
     guidetolerance="10"
     inkscape:pageopacity="0"
     inkscape:pageshadow="2"
     inkscape:window-width="1920"
     inkscape:window-height="1001"
     id="namedview83"
     showgrid="false"
     inkscape:zoom="1.2288466"
     inkscape:cx="96.025002"
     inkscape:cy="96.025002"
     inkscape:window-x="-9"
     inkscape:window-y="-9"
     inkscape:window-maximized="1"
     inkscape:current-layer="Capa_1" /><g
     id="g3"><g
       id="g5"><path
         style="fill:#7C9096;"
         d="M31.307,47.589c0,0-7.852-9.306-20.791-9.742c-12.941-0.436-19.775,23.99,15.121,37.076    l1.744-6.253c0,0-20.937-10.468-17.593-17.738c3.345-7.27,18.466,3.635,18.466,3.635L31.307,47.589z"
         id="path7" /><path
         style="fill:#AFC9D0;"
         d="M77.688,186.296v-112.1c-34.459,0-54.523-19.628-54.523-19.628v115.153    C23.165,169.721,31.452,186.296,77.688,186.296z"
         id="path9" /><path
         style="fill:#C6D4E1;"
         d="M77.688,74.196V19.6H48.173v22.318c0,0-25.008,2.326-25.008,12.649    C23.165,64.89,46.719,74.196,77.688,74.196z"
         id="path11" /><path
         style="fill:#AFC9D0;"
         d="M77.688,33.446V5.754C35.738,5.754,35.86,33.446,77.688,33.446z"
         id="path13" /><path
         style="fill:#92A8AF;"
         d="M77.688,28.534V6.72C41.081,6.72,41.187,28.534,77.688,28.534z"
         id="path15" /><path
         style="fill:#7C9096;"
         d="M77.688,26.097V7.625C43.089,7.625,43.189,26.097,77.688,26.097z"
         id="path17" /><path
         style="fill:#6B7C82;"
         d="M124.069,47.589c0,0,7.852-9.306,20.792-9.742c12.94-0.436,19.773,23.99-15.121,37.076    l-1.745-6.253c0,0,20.937-10.468,17.593-17.738c-3.344-7.27-18.465,3.635-18.465,3.635L124.069,47.589z"
         id="path19" /><path
         style="fill:#A1B9C0;"
         d="M77.688,186.296v-112.1c34.459,0,54.523-19.628,54.523-19.628v115.153    C132.212,169.721,123.924,186.296,77.688,186.296z"
         id="path21" /><path
         style="fill:#AFC9D0;"
         d="M77.688,74.196V19.6h29.515v22.318c0,0,25.009,2.326,25.009,12.649    C132.212,64.89,108.657,74.196,77.688,74.196z"
         id="path23" /><path
         style="fill:#A1B9C0;"
         d="M77.688,33.446V5.754C119.638,5.754,119.516,33.446,77.688,33.446z"
         id="path25" /><path
         style="fill:#83989F;"
         d="M77.688,28.534V6.72C114.295,6.72,114.188,28.534,77.688,28.534z"
         id="path27" /><path
         style="fill:#6B7C82;"
         d="M77.688,26.097V7.625C112.288,7.625,112.187,26.097,77.688,26.097z"
         id="path29" /><g
         id="g31"><path
           style="fill:#FFFFFF;"
           d="M47.446,121.595c0,16.703,13.54,30.242,30.242,30.242V91.352     C60.986,91.352,47.446,104.893,47.446,121.595z"
           id="path33" /><path
           style="fill:#C6D4E1;"
           d="M77.688,91.352v60.485c16.702,0,30.242-13.539,30.242-30.242     C107.931,104.893,94.391,91.352,77.688,91.352z"
           id="path35" /></g></g><path
       style="fill:#AFC9D0;"
       d="M148.33,171.532c0,0,5.056,7.349,20.521,7.349v-80.84h-23.198L148.33,171.532z"
       id="path37" /><path
       style="fill:#FFFFFF;"
       d="M151.297,167.368c0,0,4.325,5.915,17.555,5.915v-65.065h-19.845L151.297,167.368z"
       id="path39" /><path
       style="fill:#A1B9C0;"
       d="M189.373,171.532c0,0-5.056,7.349-20.521,7.349v-80.84h23.198L189.373,171.532z"
       id="path41" /><path
       style="fill:#C6D4E1;"
       d="M186.406,167.368c0,0-4.325,5.915-17.555,5.915v-65.065h19.845L186.406,167.368z"
       id="path43" /><path
       style="fill:#A1B9C0;"
       d="M145.653,98.041c0,2.65,10.386,4.798,23.198,4.798v-9.596   C156.039,93.243,145.653,95.391,145.653,98.041z"
       id="path45" /><path
       style="fill:#92A8AF;"
       d="M192.05,98.041c0-2.65-10.386-4.798-23.198-4.798v9.596   C181.664,102.839,192.05,100.691,192.05,98.041z"
       id="path47" /><path
       style="fill:#C6D4E1;"
       d="M188.695,108.219c0-1.837-8.884-3.326-19.844-3.326v6.652   C179.812,111.545,188.695,110.055,188.695,108.219z"
       id="path49" /><path
       style="fill:#FFFFFF;"
       d="M149.007,108.219c0,1.837,8.885,3.326,19.845,3.326v-6.652   C157.892,104.893,149.007,106.382,149.007,108.219z"
       id="path51" /></g><g
     id="g53" /><g
     id="g55" /><g
     id="g57" /><g
     id="g59" /><g
     id="g61" /><g
     id="g63" /><g
     id="g65" /><g
     id="g67" /><g
     id="g69" /><g
     id="g71" /><g
     id="g73" /><g
     id="g75" /><g
     id="g77" /><g
     id="g79" /><g
     id="g81" /><path
     style="fill:#d06c74;fill-opacity:1;stroke:#bda881;stroke-opacity:1"
     id="path4219"
     d="m 23.524093,9.0567302 c 1.043458,2.8049108 2.531728,5.3926378 4.237765,7.8381198 1.38077,1.824398 2.461053,3.867809 3.962316,5.602733 0.663501,0.766771 1.589927,1.627951 2.314233,2.327078 2.836095,2.732113 6.375706,4.505964 9.605111,6.698076 2.841813,1.783891 5.032244,4.360697 7.288346,6.800545 2.393773,2.505635 4.589096,5.18646 6.91287,7.755842 2.379811,2.369476 4.652802,4.830858 7.116575,7.114837 2.581694,2.675654 5.371702,5.128486 8.064346,7.688918 2.747139,2.492484 5.364497,5.112827 7.856376,7.860047 1.891074,2.056576 3.79878,4.098618 5.687842,6.158552 2.660111,2.519728 4.983262,5.361673 7.4291,8.083612 2.289183,2.48039 4.340841,5.150278 6.456597,7.775849 2.01814,2.378685 3.99587,4.798506 5.70957,7.408152 1.33744,2.111089 3.0869,3.935219 4.86267,5.681569 1.86628,1.81083 3.68212,3.66609 5.57201,5.45277 1.99054,2.16389 4.16185,4.14867 6.18109,6.28598 2.58243,2.51237 4.27604,5.68655 6.02849,8.78721 1.40326,2.45403 2.96903,4.81843 4.37586,7.27185 1.74361,3.11894 3.71875,6.09775 5.45137,9.22477 1.42754,2.66834 3.06553,5.15531 5.07566,7.4087 1.4925,1.44711 2.85687,3.01063 4.29947,4.50694 1.15532,1.47921 2.42338,2.86746 3.5779,4.34594 1.35085,1.8154 2.88118,3.4775 4.19328,5.32166 1.86396,2.66834 3.70199,5.33727 5.69811,7.90824 1.47993,1.94499 2.28956,4.25963 3.93621,6.07864 0,0 -10.29988,6.21185 -10.29988,6.21185 l 0,0 c -1.5852,-1.8974 -2.52608,-4.14922 -3.92309,-6.17576 -1.95176,-2.61487 -3.79299,-5.30095 -5.73935,-7.91936 -1.32937,-1.81432 -2.87478,-3.44502 -4.21201,-5.25435 -1.13864,-1.44319 -2.38989,-2.79609 -3.52893,-4.24029 -1.4346,-1.52182 -2.80203,-3.10067 -4.28694,-4.5739 -2.03528,-2.3669 -3.60799,-4.95166 -5.11078,-7.6893 -1.70466,-3.13315 -3.73465,-6.06725 -5.49425,-9.16925 -1.42955,-2.44735 -3.00596,-4.80755 -4.34836,-7.30752 -1.68152,-3.03515 -3.35999,-6.08518 -5.87642,-8.53166 -2.02226,-2.1184 -4.23303,-4.04448 -6.23687,-6.18159 -1.87895,-1.80435 -3.64029,-3.72145 -5.54876,-5.49541 -1.820718,-1.82144 -3.66654,-3.68462 -5.013808,-5.89406 -1.644677,-2.60048 -3.575503,-4.9984 -5.56953,-7.338112 -2.125275,-2.590595 -4.171732,-5.242787 -6.408497,-7.740891 -2.42716,-2.737744 -4.786689,-5.549289 -7.497155,-8.016995 -1.908394,-2.042565 -3.767208,-4.132886 -5.647779,-6.199831 -2.460406,-2.73469 -5.042969,-5.336518 -7.778343,-7.796992 -2.708577,-2.540296 -5.460043,-5.028717 -8.067744,-7.674948 -2.48385,-2.309683 -4.839499,-4.735025 -7.152004,-7.216087 -2.319442,-2.573732 -4.59368,-5.187988 -6.970638,-7.708859 -2.176516,-2.385835 -4.323411,-4.86692 -7.087722,-6.595801 -3.299338,-2.209685 -6.83834,-4.104926 -9.738986,-6.860543 -2.601896,-2.519516 -4.421481,-5.087063 -6.386917,-8.114632 -1.794558,-2.44129 -3.193524,-5.102358 -4.431928,-7.867431 0,0 10.463524,-6.0349078 10.463524,-6.0349078 z"
     inkscape:connector-curvature="0" /><path
     style="fill:#d06c74;fill-opacity:1;stroke:#bda881;stroke-width:1.09399307;stroke-opacity:1"
     id="path4219-1"
     d="m 169.92209,8.579846 c -1.2044,2.908387 -2.92223,5.591579 -4.89139,8.127277 -1.59374,1.891703 -2.84066,4.010497 -4.57346,5.809425 -0.76585,0.795058 -1.83517,1.688008 -2.67119,2.412926 -3.27353,2.832905 -7.35909,4.672195 -11.08659,6.945176 -3.28014,1.849701 -5.80842,4.521569 -8.4125,7.051425 -2.76299,2.598071 -5.29692,5.377795 -7.97911,8.041965 -2.74686,2.456889 -5.37044,5.009074 -8.21423,7.377312 -2.9799,2.774362 -6.20023,5.317681 -9.30818,7.972571 -3.17086,2.584434 -6.19192,5.301444 -9.06815,8.150012 -2.18275,2.132447 -4.3847,4.249822 -6.565127,6.385749 -3.070404,2.612684 -5.751876,5.559473 -8.57496,8.381829 -2.642263,2.571894 -5.010369,5.340278 -7.452463,8.062704 -2.329417,2.466433 -4.612191,4.975526 -6.590211,7.681443 -1.543726,2.18898 -3.563022,4.0804 -5.612686,5.89118 -2.154134,1.87762 -4.250048,3.80133 -6.431433,5.65393 -2.297561,2.24372 -4.803772,4.30172 -7.134459,6.51787 -2.980742,2.60505 -4.935574,5.89634 -6.95832,9.11138 -1.619698,2.54456 -3.426972,4.99619 -5.05079,7.54012 -2.012544,3.234 -4.292328,6.3227 -6.292186,9.56508 -1.647723,2.76677 -3.538356,5.34549 -5.858528,7.68202 -1.722702,1.50049 -3.297511,3.12169 -4.962617,4.6732 -1.333516,1.53378 -2.797161,2.97325 -4.129754,4.50626 -1.559204,1.88238 -3.325572,3.6058 -4.840049,5.51799 -2.151456,2.76678 -4.272982,5.53417 -6.576984,8.19999 -1.7081929,2.01674 -2.6427003,4.41676 -4.543328,6.30288 0,0 11.888527,6.44101 11.888527,6.44101 l 0,0 c 1.829701,-1.96739 2.915702,-4.30228 4.528186,-6.40358 2.252798,-2.71134 4.378019,-5.49652 6.624585,-8.21152 1.53441,-1.88126 3.318184,-3.57211 4.861668,-5.44819 1.314262,-1.49643 2.758504,-2.89924 4.07323,-4.39672 1.655872,-1.57796 3.234213,-3.21506 4.948154,-4.74264 2.349201,-2.45422 4.164485,-5.13433 5.899065,-7.97297 1.967585,-3.24873 4.310679,-6.29107 6.341679,-9.5075 1.650043,-2.53764 3.469598,-4.98491 5.019048,-7.5771 1.940877,-3.14713 3.878233,-6.30968 6.782796,-8.84641 2.334172,-2.19655 4.885931,-4.19368 7.198842,-6.40963 2.168759,-1.87092 4.201767,-3.85874 6.404598,-5.69815 2.101547,-1.88863 4.232066,-3.82055 5.787138,-6.1115 1.898354,-2.69641 4.126994,-5.18279 6.428571,-7.60882 2.453082,-2.686172 4.815175,-5.436202 7.396938,-8.026462 2.80153,-2.838743 5.52499,-5.754012 8.65351,-8.312758 2.20276,-2.117911 4.34827,-4.285347 6.5189,-6.428544 2.83989,-2.835576 5.82079,-5.533389 8.97807,-8.084632 3.12634,-2.634011 6.3022,-5.214232 9.3121,-7.958086 2.86696,-2.39489 5.58595,-4.909706 8.25513,-7.482297 2.6772,-2.668679 5.3022,-5.379379 8.04578,-7.993248 2.51223,-2.473851 4.99025,-5.046466 8.18093,-6.839128 3.80823,-2.291202 7.89308,-4.256361 11.24113,-7.113636 3.00321,-2.612464 5.10343,-5.274731 7.37203,-8.413991 2.07134,-2.531352 3.68608,-5.290589 5.11549,-8.157669 0,0 -12.0774,-6.257543 -12.0774,-6.257543 z"
     inkscape:connector-curvature="0" /></svg>