<?xml version="1.0" encoding="UTF-8" standalone="no"?>
<svg
   xmlns:dc="http://purl.org/dc/elements/1.1/"
   xmlns:cc="http://creativecommons.org/ns#"
   xmlns:rdf="http://www.w3.org/1999/02/22-rdf-syntax-ns#"
   xmlns:svg="http://www.w3.org/2000/svg"
   xmlns="http://www.w3.org/2000/svg"
   xmlns:sodipodi="http://sodipodi.sourceforge.net/DTD/sodipodi-0.dtd"
   xmlns:inkscape="http://www.inkscape.org/namespaces/inkscape"
   version="1.1"
   x="0px"
   y="0px"
   viewBox="0 0 512 640"
   enable-background="new 0 0 512 512"
   xml:space="preserve"
   id="svg2"
   inkscape:version="0.91 r13725"
   sodipodi:docname="pork.svg"><metadata
     id="metadata32"><rdf:RDF><cc:Work
         rdf:about=""><dc:format>image/svg+xml</dc:format><dc:type
           rdf:resource="http://purl.org/dc/dcmitype/StillImage" /><dc:title></dc:title></cc:Work></rdf:RDF></metadata><defs
     id="defs30" /><sodipodi:namedview
     pagecolor="#ffffff"
     bordercolor="#666666"
     borderopacity="1"
     objecttolerance="10"
     gridtolerance="10"
     guidetolerance="10"
     inkscape:pageopacity="0"
     inkscape:pageshadow="2"
     inkscape:window-width="1920"
     inkscape:window-height="1001"
     id="namedview28"
     showgrid="false"
     inkscape:zoom="0.36875"
     inkscape:cx="256"
     inkscape:cy="320"
     inkscape:window-x="-9"
     inkscape:window-y="-9"
     inkscape:window-maximized="1"
     inkscape:current-layer="svg2" /><g
     id="g4"
     transform="matrix(1.5064326,0,0,1.4842614,-129.64672,-52.493955)"><g
       id="g6"><path
         d="m 407.523,170.578 c 8.339,-20.305 12.727,-58.803 12.918,-60.512 l 0.794,-7.083 -7.115,0.426 c -1.717,0.103 -40.521,2.462 -61.211,6.77 -4.991,-2.67 -10.24,-5.079 -15.751,-7.203 C 316.427,94.983 291.402,90.655 262.703,90.075 264.345,82.305 269.812,70 288,70 c 3.313,0 6,-2.686 6,-6 0,-3.314 -2.687,-6 -6,-6 -19.595,0 -28.961,10.506 -33.366,19.319 -2.312,4.623 -3.469,9.237 -4.049,12.727 -29.24,0.475 -54.702,4.815 -75.743,12.928 -5.518,2.127 -10.772,4.539 -15.77,7.213 -20.678,-4.314 -59.543,-6.678 -61.261,-6.78 l -7.115,-0.426 0.794,7.083 c 0.191,1.711 4.591,40.31 12.951,60.593 C 94.756,193.715 90,221.951 90,256 c 0,91.533 74.467,166 166,166 91.533,0 166,-74.467 166,-166 0,-34.089 -4.768,-62.351 -14.477,-85.422 z m 0.078,-54.7 c -1.282,9.336 -3.885,26.064 -7.619,39.491 -3.39,-5.842 -7.175,-11.283 -11.362,-16.335 -5.959,-7.189 -12.796,-13.608 -20.447,-19.244 13.802,-1.901 30.203,-3.241 39.428,-3.912 z m -303.27,0 c 9.237,0.671 25.671,2.014 39.486,3.92 -7.647,5.633 -14.48,12.05 -20.437,19.236 -4.206,5.074 -8.008,10.541 -11.408,16.412 -3.743,-13.437 -6.355,-30.213 -7.641,-39.568 z M 256,410 c -84.916,0 -154,-69.084 -154,-154 0,-32.775 4.545,-59.68 13.793,-81.353 0.653,-0.819 1.083,-1.792 1.244,-2.819 4.27,-9.376 9.453,-17.742 15.582,-25.136 7.976,-9.622 17.539,-17.653 28.748,-24.138 1.382,-0.224 2.642,-0.928 3.558,-1.974 C 188.283,108.124 218.428,102 256,102 c 37.508,0 67.611,6.104 90.953,18.515 0.938,1.104 2.254,1.839 3.699,2.05 11.201,6.483 20.758,14.511 28.729,24.126 6.084,7.341 11.238,15.64 15.49,24.935 0.144,1.177 0.631,2.295 1.412,3.201 C 405.48,196.47 410,223.315 410,256 c 0,84.916 -69.084,154 -154,154 z"
         id="path8"
         inkscape:connector-curvature="0" /><path
         d="M 314.627,275.893 C 299.139,270 278.185,270 256,270 c -26.578,0 -45.309,2.846 -58.946,8.955 -17.882,8.011 -26.948,21.82 -26.948,41.044 0,21.393 8.876,35.413 27.135,42.861 14.571,5.945 33.285,7.14 58.759,7.14 22.185,0 43.139,0 58.627,-5.892 18.349,-6.979 27.268,-21.407 27.268,-44.107 0,-22.7 -8.919,-37.129 -27.268,-44.108 z M 256,358 c -50.066,0 -73.895,-5.686 -73.895,-38 0,-26.635 22.1,-38 73.895,-38 48.557,0 73.895,1.691 73.895,38 0,36.309 -25.338,38 -73.895,38 z"
         id="path10"
         inkscape:connector-curvature="0" /><path
         d="m 223.611,313.29 c -3.547,0 -6.432,2.886 -6.432,6.433 0,3.547 2.885,6.432 6.432,6.432 3.547,0 6.433,-2.885 6.433,-6.432 0,-3.547 -2.886,-6.433 -6.433,-6.433 z"
         id="path12"
         inkscape:connector-curvature="0" /><path
         d="m 287.611,313.29 c -3.547,0 -6.432,2.886 -6.432,6.433 0,3.547 2.885,6.432 6.432,6.432 3.547,0 6.433,-2.885 6.433,-6.432 0,-3.547 -2.886,-6.433 -6.433,-6.433 z"
         id="path14"
         inkscape:connector-curvature="0" /><path
         d="m 328.012,193.902 c -13.729,0.233 -24.837,3.629 -25.303,3.773 -3.163,0.979 -4.931,4.335 -3.954,7.499 0.977,3.164 4.335,4.938 7.498,3.966 0.386,-0.119 38.74,-11.597 55.372,9.365 1.185,1.493 2.936,2.271 4.704,2.271 1.307,0 2.623,-0.425 3.726,-1.3 2.596,-2.06 3.03,-5.834 0.971,-8.43 -9.156,-11.538 -24.035,-17.457 -43.014,-17.144 z"
         id="path16"
         inkscape:connector-curvature="0" /><path
         d="m 205.576,209.138 c 3.163,0.983 6.525,-0.791 7.507,-3.955 0.98,-3.165 -0.79,-6.526 -3.956,-7.507 -0.466,-0.145 -11.574,-3.541 -25.302,-3.773 -18.946,-0.327 -33.859,5.606 -43.016,17.143 -2.06,2.596 -1.625,6.37 0.971,8.43 1.103,0.875 2.419,1.3 3.726,1.3 1.768,0 3.52,-0.778 4.704,-2.27 16.633,-20.961 54.987,-9.484 55.366,-9.368 z"
         id="path18"
         inkscape:connector-curvature="0" /><path
         d="m 177.96,249.634 c 5.803,0 10.524,-4.721 10.524,-10.524 0,-5.803 -4.722,-10.524 -10.524,-10.524 -5.802,0 -10.523,4.721 -10.523,10.524 0,5.803 4.72,10.524 10.523,10.524 z"
         id="path20"
         inkscape:connector-curvature="0" /><path
         d="m 333.18,228.586 c -5.804,0 -10.525,4.721 -10.525,10.524 0,5.803 4.722,10.524 10.525,10.524 5.803,0 10.523,-4.721 10.523,-10.524 0,-5.803 -4.721,-10.524 -10.523,-10.524 z"
         id="path22"
         inkscape:connector-curvature="0" /></g></g></svg>